<svg width="512" height="512" viewBox="0 0 512 512" xmlns="http://www.w3.org/2000/svg">
  <defs>
    <linearGradient id="gradient1" x1="0%" y1="0%" x2="100%" y2="100%">
      <stop offset="0%" style="stop-color:#0066FF;stop-opacity:1" />
      <stop offset="100%" style="stop-color:#00D4AA;stop-opacity:1" />
    </linearGradient>
  </defs>
  
  <!-- Shield Background -->
  <path d="M256 32 L128 96 L128 256 Q128 384 256 480 Q384 384 384 256 L384 96 Z" 
        fill="url(#gradient1)" opacity="0.9"/>
  
  <!-- Inner Shield -->
  <path d="M256 64 L160 112 L160 256 Q160 352 256 432 Q352 352 352 256 L352 112 Z" 
        fill="#ffffff" opacity="0.95"/>
  
  <!-- Terraform "T" -->
  <rect x="236" y="140" width="40" height="200" fill="#0066FF" rx="4"/>
  <rect x="196" y="140" width="120" height="40" fill="#0066FF" rx="4"/>
  
  <!-- ML Circuit Pattern -->
  <circle cx="216" cy="260" r="8" fill="#00D4AA"/>
  <circle cx="256" cy="280" r="8" fill="#00D4AA"/>
  <circle cx="296" cy="260" r="8" fill="#00D4AA"/>
  <line x1="216" y1="260" x2="256" y2="280" stroke="#00D4AA" stroke-width="3"/>
  <line x1="256" y1="280" x2="296" y2="260" stroke="#00D4AA" stroke-width="3"/>
  
  <!-- Lock Symbol (Security) -->
  <rect x="240" y="300" width="32" height="24" fill="#FF6B6B" rx="2"/>
  <path d="M248 300 L248 292 Q248 284 256 284 Q264 284 264 292 L264 300" 
        fill="none" stroke="#FF6B6B" stroke-width="4"/>
</svg>